<svg width="108" height="90" viewBox="0 0 108 90" fill="none" xmlns="http://www.w3.org/2000/svg">
<g clip-path="url(#clip0_115_4233)">
<path d="M71.9555 85.3338L76.6615 77.2128C77.3132 76.0936 76.951 74.8303 75.8652 74.2167C74.7791 73.567 73.5484 73.9281 72.8967 75.0469L68.118 83.2403C67.539 84.287 67.8285 85.5504 68.9506 86.1639C70.0367 86.7775 71.3401 86.4167 71.9555 85.3338Z" fill="#36C8EB" fill-opacity="0.85"/>
<path d="M60.6249 75.1937L65.3309 67.0361C65.9826 65.9536 65.6204 64.6902 64.5343 64.0405C63.4485 63.4269 62.2174 63.7518 61.5661 64.8706L56.8238 73.1003C56.208 74.1108 56.4979 75.3741 57.62 76.0239C58.7062 76.6374 60.0092 76.2405 60.6249 75.1937Z" fill="#36C8EB" fill-opacity="0.85"/>
<path d="M43.1398 85.3729L47.8459 77.2515C48.4976 76.1327 48.1718 74.8694 47.0857 74.2559C45.9635 73.6061 44.7326 73.9668 44.081 75.086L39.3387 83.2795C38.7233 84.3262 39.0491 85.5895 40.1351 86.203C41.2212 86.8166 42.5244 86.4559 43.1398 85.3729Z" fill="#36C8EB" fill-opacity="0.85"/>
<path d="M31.8084 75.2288L36.5145 67.0715C37.2023 65.9886 36.8403 64.7253 35.7543 64.0759C34.6682 63.462 33.4374 63.7868 32.7496 64.906L28.0072 73.1353C27.3918 74.1462 27.7176 75.4095 28.8399 76.0593C29.8897 76.6728 31.1929 76.2755 31.8084 75.2288Z" fill="#36C8EB" fill-opacity="0.85"/>
<path d="M30.868 58.3353H75.7936C87.6674 58.3353 96.5004 49.3479 96.5004 38.2308C96.5004 26.7167 87.088 18.3067 74.8161 18.3067C70.291 9.39134 61.8924 3.65234 51.4302 3.65234C37.8186 3.65234 26.5963 14.3002 25.4016 27.6912C18.8492 29.6042 13.8535 35.2711 13.8535 42.8868C13.8535 51.4414 20.0801 58.3353 30.868 58.3353Z" fill="white" fill-opacity="0.85"/>
</g>
<defs>
<clipPath id="clip0_115_4233">
<rect width="85" height="83" fill="white" transform="translate(11.5 3.5)"/>
</clipPath>
</defs>
</svg>
