<svg width="108" height="90" viewBox="0 0 108 90" fill="none" xmlns="http://www.w3.org/2000/svg">
<g clip-path="url(#clip0_115_4248)">
<path d="M20.7211 34.705C25.9159 33.0464 31.2911 32.181 36.4137 32.181C43.0515 32.181 47.9217 33.2627 54.1988 33.2627C60.6923 33.2627 64.7325 28.8639 64.7325 23.1309C64.7325 17.2537 60.2231 13.0352 54.6676 13.0352C50.5552 13.0352 46.9477 15.6312 45.4325 19.0565C44.8553 20.2464 45.0718 21.6165 46.3344 22.2656C47.4888 22.8425 48.8957 22.4819 49.6533 21.0396C50.4469 19.2008 52.395 17.7585 54.6676 17.7585C57.662 17.7585 60.0067 19.8498 60.0067 23.1309C60.0067 26.412 57.7341 28.5754 54.1988 28.5754C48.2103 28.5754 43.268 27.4937 36.4137 27.4937C30.5335 27.4937 24.5811 28.5394 19.278 30.234C17.7629 30.6667 17.1857 31.9647 17.5464 33.1906C17.9072 34.4526 19.0977 35.1737 20.7211 34.705ZM77.1424 51.5793C85.548 51.5793 91.5003 46.243 91.5003 38.7794C91.5003 31.4239 85.8365 26.0875 78.8018 26.0875C72.2725 26.0875 67.4384 30.6306 66.5725 36.5799C66.3561 38.0943 67.1858 39.2841 68.4846 39.4644C69.8193 39.6447 70.9737 38.8154 71.2622 37.1208C71.8754 33.3348 75.0139 30.7748 78.8018 30.7748C83.203 30.7748 86.7744 34.056 86.7744 38.7794C86.7744 43.5748 82.9865 46.892 77.1424 46.892C66.1396 46.892 54.2709 40.6182 39.8409 40.6182C32.4094 40.6182 25.6273 41.8081 19.278 44.0436C17.799 44.5844 17.1857 45.8464 17.5464 47.0723C17.9072 48.3343 19.1338 49.0915 20.7211 48.5506C26.6013 46.3151 32.7341 45.3416 39.8409 45.3416C54.2347 45.3416 64.9852 51.5793 77.1424 51.5793ZM54.2347 76.9991C59.7906 76.9991 64.0835 72.8886 64.0835 67.0114C64.0835 58.5021 55.3891 53.7429 39.3719 53.7429C32.6619 53.7429 25.4108 55.0407 19.278 57.1319C17.799 57.6728 17.1857 58.9348 17.5464 60.1606C17.9072 61.4226 19.1338 62.1799 20.7211 61.639C26.457 59.5839 32.8783 58.4663 39.3719 58.4663C52.4671 58.4663 59.3935 61.7471 59.3935 67.0114C59.3935 70.2927 57.0846 72.3119 54.2347 72.3119C51.3849 72.3119 49.6533 70.4008 49.1482 67.3721C48.9318 66.0378 47.9577 64.9202 46.4065 65.0284C44.7831 65.1365 44.1338 66.5067 44.3502 67.985C44.9996 72.9968 48.7153 76.9991 54.2347 76.9991Z" fill="white" fill-opacity="0.85"/>
</g>
<defs>
<clipPath id="clip0_115_4248">
<rect width="75" height="64" fill="white" transform="translate(16.5 13)"/>
</clipPath>
</defs>
</svg>
