<svg width="108" height="90" viewBox="0 0 108 90" fill="none" xmlns="http://www.w3.org/2000/svg">
<path d="M79.4665 84.3544C80.5527 84.9345 81.8561 84.5719 82.4714 83.5207L87.1774 75.3284C87.8291 74.2408 87.4669 72.9721 86.4171 72.3195C85.295 71.6673 84.0643 72.0296 83.4126 73.1532L78.6703 81.3818C78.0549 82.4331 78.3444 83.7018 79.4665 84.3544Z" fill="#36C8EB" fill-opacity="0.85"/>
<path d="M72.4441 74.2056C73.5302 74.8217 74.8332 74.4591 75.449 73.3715L80.155 65.2156C80.8067 64.0916 80.4445 62.8229 79.3947 62.1707C78.2726 61.5542 77.0415 61.9168 76.3902 63.0044L71.6478 71.269C71.0325 72.3203 71.322 73.589 72.4441 74.2056Z" fill="#36C8EB" fill-opacity="0.85"/>
<path d="M62.7062 69.8548H54.4886L54.4159 71.4859L58.8324 63.0037C59.2669 62.206 58.941 61.5898 58.1448 61.5898H50.289C49.2391 61.5898 48.8773 61.9525 48.5515 62.7134L43.6282 73.951C43.2299 74.857 43.6282 75.4008 44.5694 75.4008H51.2665L51.7373 73.262L45.9088 87.4357C45.7278 87.9071 45.8364 88.3058 46.1622 88.4505C46.488 88.5957 46.8862 88.4869 47.2844 88.0883L63.2853 71.6674C64.0456 70.8697 63.756 69.8548 62.7062 69.8548Z" fill="white" fill-opacity="0.85"/>
<path d="M29.148 84.3544C30.234 84.9345 31.5373 84.5719 32.1527 83.5207L36.8588 75.3284C37.5104 74.2408 37.1484 72.9721 36.0624 72.3195C34.9763 71.6673 33.7455 72.0296 33.0939 73.1532L28.3154 81.3818C27.7362 82.4331 28.0258 83.7018 29.148 84.3544Z" fill="#36C8EB" fill-opacity="0.85"/>
<path d="M22.1249 74.2056C23.2109 74.8217 24.5142 74.4591 25.1296 73.3715L29.8357 65.2156C30.4873 64.0916 30.1253 62.8229 29.0393 62.1707C27.9533 61.5542 26.7225 61.9168 26.0708 63.0044L21.3285 71.269C20.7131 72.3203 21.0027 73.589 22.1249 74.2056Z" fill="#36C8EB" fill-opacity="0.85"/>
<path d="M29.6912 56.406H74.6169C86.4907 56.406 95.3237 47.38 95.3237 36.2153C95.3237 24.6516 85.9113 16.2055 73.6393 16.2055C69.1142 7.25192 60.7157 1.48828 50.2535 1.48828C36.6418 1.48828 25.4195 12.1819 24.2249 25.6304C17.6725 27.5516 12.6768 33.2428 12.6768 40.8912C12.6768 49.4825 18.9033 56.406 29.6912 56.406Z" fill="white" fill-opacity="0.85"/>
</svg>
