<svg width="108" height="90" viewBox="0 0 108 90" fill="none" xmlns="http://www.w3.org/2000/svg">
<path d="M10.3546 82.9616H97.6452C99.3625 82.9616 100.824 81.6517 100.824 80.0509C100.824 78.4501 99.3625 77.1406 97.6452 77.1406H10.3546C8.63732 77.1406 7.17578 78.4501 7.17578 80.0509C7.17578 81.6517 8.63732 82.9616 10.3546 82.9616Z" fill="white" fill-opacity="0.85"/>
<path d="M73.7852 65.4266C73.7852 54.6944 64.8335 45.7084 54.0178 45.7084C43.166 45.7084 34.2141 54.6944 34.2141 65.4266C34.2141 68.0825 34.7622 70.6292 35.7852 72.8849H72.2141C73.237 70.6292 73.7852 68.0825 73.7852 65.4266ZM15.1045 67.5006H24.0929C25.9929 67.5006 27.418 66.1907 27.3814 64.5538C27.3448 62.9164 25.9564 61.6066 24.0929 61.6066H15.1045C13.2045 61.6066 11.8525 62.9164 11.8525 64.5538C11.8525 66.1907 13.2045 67.5006 15.1045 67.5006ZM30.7429 46.5086C32.0583 47.8546 34.0314 47.8911 35.1641 46.7269C36.2968 45.5627 36.2968 43.6345 34.9449 42.3248L28.5872 35.9945C27.2353 34.6484 25.3718 34.6848 24.2025 35.8126C23.0333 36.9404 22.9968 38.8322 24.3852 40.1783L30.7429 46.5086ZM72.8352 46.7269C74.0044 47.8546 75.941 47.8546 77.2566 46.5086L83.6142 40.1783C85.0027 38.8322 84.9293 36.9768 83.7968 35.8126C82.6642 34.6484 80.7643 34.6484 79.4121 35.9945L73.0544 42.3248C71.7026 43.6345 71.666 45.5992 72.8352 46.7269ZM83.9064 67.5006H92.8951C94.795 67.5006 96.1469 66.1907 96.1469 64.5538C96.1469 62.9164 94.795 61.6066 92.8951 61.6066H83.9064C82.0431 61.6066 80.5813 62.9164 80.618 64.5538C80.6546 66.1907 82.0431 67.5006 83.9064 67.5006Z" fill="#FAD631" fill-opacity="0.85"/>
<path d="M54.0179 7.03516C52.3739 7.03516 51.022 8.4904 51.022 10.2731V23.8796L51.4602 29.3731L49.1217 26.6445L44.1892 21.6967C43.6411 21.151 42.9469 20.86 42.2526 20.86C40.7911 20.86 39.7314 21.8422 39.7314 23.2975C39.7314 24.0615 39.9872 24.6436 40.6084 25.1893L52.0083 35.7762C52.7757 36.4674 53.3238 36.7221 54.0179 36.7221C54.6757 36.7221 55.2238 36.4674 55.9912 35.7762L67.3913 25.1893C68.0124 24.6436 68.2679 24.0615 68.2679 23.2975C68.2679 21.8422 67.2083 20.86 65.7469 20.86C65.0528 20.86 64.3584 21.151 63.8103 21.6967L59.243 26.2807L56.5393 29.3731L56.9774 23.8796V10.2731C56.9774 8.4904 55.6256 7.03516 54.0179 7.03516Z" fill="white" fill-opacity="0.85"/>
</svg>
