<svg width="108" height="90" viewBox="0 0 108 90" fill="none" xmlns="http://www.w3.org/2000/svg">
<g clip-path="url(#clip0_115_4235)">
<path d="M65.0545 89.4992C65.6985 89.4992 66.1638 88.8559 66.1279 88.2122L65.8773 84.815L68.7395 86.7461C69.2403 87.0679 70.0631 86.9248 70.421 86.3884C70.743 85.8519 70.5638 85.0295 69.8484 84.7077L66.7719 83.242L69.8843 81.7041C70.5638 81.3823 70.7071 80.5958 70.4565 80.0593C70.1345 79.4874 69.2403 79.3801 68.7395 79.702L65.8773 81.7041L66.1638 78.2359C66.2352 77.5563 65.6985 76.9844 65.0545 76.9844C64.3031 76.9844 63.8742 77.5563 63.9097 78.2359L64.1244 81.7041L61.2266 79.702C60.7259 79.3801 59.9745 79.4515 59.6166 80.0593C59.295 80.5958 59.4378 81.3468 60.1177 81.7041L63.1942 83.242L60.1177 84.7436C59.4378 85.0654 59.2591 85.8164 59.5811 86.3884C59.9031 86.9962 60.7259 87.1035 61.2266 86.7461L64.1244 84.815L63.9456 88.2122C63.9097 88.8559 64.3031 89.4992 65.0545 89.4992Z" fill="white" fill-opacity="0.85"/>
<path d="M45.2353 89.4992C45.8793 89.4992 46.3443 88.8559 46.3085 88.2122L46.0939 84.815L48.92 86.7461C49.4208 87.0679 50.244 86.9248 50.6015 86.3884C50.9235 85.8519 50.7448 85.0295 50.0293 84.7077L46.9525 83.242L50.0648 81.7041C50.7448 81.3823 50.8876 80.5958 50.6374 80.0593C50.3154 79.4874 49.4208 79.3801 48.92 79.702L46.0939 81.7041L46.3443 78.2359C46.4159 77.5563 45.8793 76.9844 45.2353 76.9844C44.484 76.9844 44.0547 77.5563 44.0905 78.2359L44.3051 81.7041L41.4073 79.702C40.9065 79.3801 40.1552 79.4515 39.7975 80.0593C39.4755 80.5958 39.6186 81.3468 40.2983 81.7041L43.375 83.242L40.2983 84.7436C39.6186 85.0654 39.4397 85.8164 39.7617 86.3884C40.0837 86.9962 40.9065 87.1035 41.4073 86.7461L44.3051 84.815L44.1263 88.2122C44.0905 88.8559 44.484 89.4992 45.2353 89.4992Z" fill="white" fill-opacity="0.85"/>
<path d="M25.4159 89.4992C26.0599 89.4992 26.5249 88.8559 26.4892 88.2122L26.2745 84.815L29.1008 86.7461C29.6374 87.0679 30.4245 86.9248 30.7822 86.3884C31.1042 85.8519 30.9253 85.0295 30.2098 84.7077L27.1689 83.242L30.2456 81.7041C30.9253 81.3823 31.0684 80.5958 30.818 80.0593C30.496 79.4874 29.6374 79.3801 29.1008 79.702L26.2745 81.7041L26.5249 78.2359C26.5965 77.5563 26.0599 76.9844 25.4159 76.9844C24.6647 76.9844 24.2353 77.5563 24.2711 78.2359L24.4858 81.7041L21.6238 79.702C21.0871 79.3801 20.3359 79.4515 19.9781 80.0593C19.6561 80.5958 19.7993 81.3468 20.479 81.7041L23.5556 83.242L20.479 84.7436C19.7993 85.0654 19.6204 85.8164 19.9423 86.3884C20.2643 86.9962 21.0871 87.1035 21.6238 86.7461L24.4858 84.815L24.3069 88.2122C24.2711 88.8559 24.6647 89.4992 25.4159 89.4992Z" fill="white" fill-opacity="0.85"/>
<path d="M72.8175 76.0574C73.4611 76.0574 73.9264 75.4496 73.8905 74.8059L73.6403 71.3732L76.5021 73.3039C77.0029 73.6617 77.8261 73.5185 78.1836 72.9821C78.5056 72.4457 78.3268 71.6233 77.6114 71.3014L74.5345 69.7998L77.6469 68.2624C78.3268 67.9405 78.4697 67.1895 78.2195 66.6172C77.8975 66.0453 77.0029 65.938 76.5021 66.2957L73.6403 68.2624L73.9264 64.8296C73.9978 64.1501 73.4611 63.5781 72.8175 63.5781C72.0661 63.5781 71.6368 64.1501 71.6727 64.8296L71.8874 68.2624L68.9893 66.2957C68.4885 65.938 67.7371 66.0094 67.3796 66.6172C67.0576 67.1895 67.2008 67.9405 67.8804 68.2624L70.9572 69.7998L67.8804 71.3014C67.2008 71.6233 67.0217 72.4102 67.3437 72.9821C67.6657 73.5544 68.4885 73.6617 68.9893 73.3398L71.8874 71.4087L71.7082 74.8059C71.6727 75.4496 72.0661 76.0574 72.8175 76.0574Z" fill="white" fill-opacity="0.85"/>
<path d="M52.9979 76.0574C53.642 76.0574 54.1068 75.4496 54.0713 74.8059L53.8566 71.3732L56.6829 73.3039C57.1837 73.6617 58.0065 73.5185 58.364 72.9821C58.6861 72.4457 58.5073 71.6233 57.7918 71.3014L54.7153 69.7998L57.8277 68.2624C58.5073 67.9405 58.6505 67.1895 58.3999 66.6172C58.0779 66.0453 57.1837 65.938 56.6829 66.2957L53.8566 68.2624L54.1068 64.8296C54.1786 64.1501 53.642 63.5781 52.9979 63.5781C52.2466 63.5781 51.8172 64.1501 51.8531 64.8296L52.0678 68.2624L49.1701 66.2957C48.6693 65.938 47.9179 66.0094 47.5601 66.6172C47.2382 67.1895 47.3813 67.9405 48.061 68.2624L51.1377 69.7998L48.061 71.3014C47.3813 71.6233 47.2024 72.4102 47.5244 72.9821C47.8464 73.5544 48.6693 73.6617 49.1701 73.3398L52.0678 71.4087L51.889 74.8059C51.8531 75.4496 52.2466 76.0574 52.9979 76.0574Z" fill="white" fill-opacity="0.85"/>
<path d="M33.1786 76.0574C33.8226 76.0574 34.2876 75.4496 34.2519 74.8059L34.0372 71.3732L36.8635 73.3039C37.3643 73.6617 38.1872 73.5185 38.5449 72.9821C38.8669 72.4457 38.688 71.6233 37.9725 71.3014L34.9316 69.7998L38.0083 68.2624C38.688 67.9405 38.8311 67.1895 38.5807 66.6172C38.2587 66.0453 37.3643 65.938 36.8635 66.2957L34.0372 68.2624L34.2876 64.8296C34.3592 64.1501 33.8226 63.5781 33.1786 63.5781C32.4273 63.5781 31.998 64.1501 32.0338 64.8296L32.2485 68.2624L29.3865 66.2957C28.8498 65.938 28.0986 66.0094 27.7408 66.6172C27.4188 67.1895 27.5619 67.9405 28.2417 68.2624L31.3183 69.7998L28.2417 71.3014C27.5619 71.6233 27.3831 72.4102 27.705 72.9821C28.027 73.5544 28.8498 73.6617 29.3865 73.3398L32.2485 71.4087L32.0696 74.8059C32.0338 75.4496 32.4273 76.0574 33.1786 76.0574Z" fill="white" fill-opacity="0.85"/>
<path d="M31.1395 58.2114H75.5366C87.2707 58.2114 95.9998 49.308 95.9998 38.2948C95.9998 26.888 86.6981 18.5566 74.5706 18.5566C70.0987 9.72448 61.7989 4.03906 51.4598 4.03906C38.0083 4.03906 26.918 14.5875 25.7375 27.8535C19.2622 29.7486 14.3252 35.3625 14.3252 42.9072C14.3252 51.3819 20.4785 58.2114 31.1395 58.2114Z" fill="white" fill-opacity="0.85"/>
</g>
<defs>
<clipPath id="clip0_115_4235">
<rect width="84" height="89" fill="white" transform="translate(12 0.5)"/>
</clipPath>
</defs>
</svg>
