<svg width="108" height="90" viewBox="0 0 108 90" fill="none" xmlns="http://www.w3.org/2000/svg">
<g clip-path="url(#clip0_115_4234)">
<path d="M53.3455 80.9643C54.9022 80.9643 55.8221 79.8611 55.8221 78.3304V70.6074L61.9076 74.0952C63.2165 74.8069 64.561 74.7002 65.3041 73.3834C65.941 72.2802 65.5515 70.892 64.207 70.1446L55.8221 65.34V60.8201L55.1145 48.114L65.7638 55.0542L69.6911 57.2967L69.6204 67.0129C69.6204 68.5432 70.5758 69.6464 71.8137 69.6464C73.3354 69.6464 74.1136 68.5075 74.1136 67.0129L74.1491 59.8945L80.8359 63.8097C82.2155 64.6283 83.5248 64.2722 84.2675 62.9912C85.0106 61.6387 84.6215 60.2505 83.3125 59.503L76.6257 55.6238L82.7111 52.0289C83.9846 51.2461 84.5508 50.0361 83.8078 48.7547C83.1002 47.6158 81.7557 47.2955 80.4468 48.0787L72.1322 52.99L68.2053 50.7479L56.7774 44.9821L68.2404 39.2165L72.097 36.9387L80.4113 41.8502C81.7202 42.6332 83.1709 42.3128 83.8433 41.2095C84.5508 39.9283 83.9846 38.6826 82.7111 37.8996L76.6257 34.3405L83.3125 30.4611C84.657 29.6782 85.0461 28.3257 84.303 26.9733C83.56 25.692 82.2155 25.3717 80.871 26.1547L74.1491 29.9985L74.0781 22.9159C74.0781 21.3856 73.3354 20.3178 71.8492 20.3178C70.5403 20.3178 69.6204 21.3856 69.6204 22.9159L69.6556 32.5966L65.7638 34.8744L55.1145 41.8502L55.8221 29.1087V24.5887L64.207 19.8196C65.5515 19.0366 65.941 17.6841 65.3041 16.5452C64.561 15.264 63.2165 15.1216 61.9076 15.869L55.8221 19.3569V11.5981C55.8221 10.0677 54.9022 9 53.3455 9C51.8595 9 50.9043 10.0677 50.9043 11.5981V19.3569L44.7127 15.869C43.4037 15.1216 42.13 15.264 41.3517 16.5452C40.7148 17.6841 41.1394 19.0366 42.4838 19.7839L50.9043 24.5887V29.1087L51.5765 41.8502L40.9271 34.8744L36.9999 32.5966L37.0707 22.9159C37.0707 21.3856 36.1508 20.3178 34.8771 20.3178C33.3558 20.3178 32.5774 21.4211 32.5774 22.9159L32.542 29.9985L25.8198 26.1547C24.5107 25.4073 23.0955 25.692 22.3879 26.9733C21.6096 28.3257 22.0341 29.7137 23.3786 30.4611L30.03 34.3405L23.98 37.8996C22.7063 38.6826 22.1403 39.8215 22.8479 41.2095C23.4847 42.3484 24.9353 42.6332 26.2797 41.8502L34.5587 36.9742L38.4505 39.2165L49.8782 44.9821L38.4505 50.7479L34.5587 53.0257L26.2443 48.0787C24.9353 47.2955 23.5201 47.6158 22.9186 48.719C22.1756 50.1072 22.7063 51.2461 23.98 52.0289L30.0654 55.6238L23.3786 59.503C22.0695 60.2505 21.6449 61.6741 22.3879 62.9555C23.1663 64.3079 24.5107 64.5568 25.8198 63.8097L32.542 59.9659L32.5774 67.0129C32.5774 68.5075 33.3558 69.6464 34.8417 69.6464C36.1154 69.6464 37.0707 68.5432 37.0707 67.0129L37.0353 57.2967L40.9271 55.0899L51.5765 48.114L50.9043 60.8201V65.34L42.4838 70.1446C41.1394 70.892 40.7148 72.2802 41.3517 73.3834C42.13 74.7002 43.4037 74.8069 44.7127 74.0952L50.9043 70.5717V78.3304C50.9043 79.8611 51.8595 80.9643 53.3455 80.9643Z" fill="white" fill-opacity="0.85"/>
</g>
<defs>
<clipPath id="clip0_115_4234">
<rect width="64" height="72" fill="white" transform="translate(22 9)"/>
</clipPath>
</defs>
</svg>
