<svg width="108" height="90" viewBox="0 0 108 90" fill="none" xmlns="http://www.w3.org/2000/svg">
<path d="M91.0064 62.8302L96.7829 68.3887C97.9755 69.5437 97.9755 71.4568 96.7829 72.5756C95.5904 73.7306 93.6151 73.8027 92.46 72.6118L86.6461 67.0533C85.4536 65.8979 85.4536 63.9852 86.6461 62.8302C87.8387 61.711 89.8139 61.711 91.0064 62.8302ZM87.8387 46.1184C87.8387 52.5522 84.2538 58.2423 78.9387 61.3828C77.8954 50.8815 69.1892 42.9759 57.7645 41.8592C56.5727 40.0372 55.2081 38.3751 53.6839 36.9044C56.9196 31.718 62.7964 28.2155 69.4289 28.2155C79.4909 28.2155 87.8387 36.3368 87.8387 46.1184ZM108 46.1184C108 47.7787 106.621 49.1141 104.944 49.1141H96.8573C95.2175 49.1141 93.7643 47.7787 93.7643 46.1184C93.7643 44.5302 95.2175 43.1225 96.8573 43.1225H104.944C106.621 43.1225 108 44.5302 108 46.1184ZM96.7829 19.6611C97.9755 20.8161 97.9755 22.7653 96.7829 23.9203L91.0438 29.4427C89.8139 30.6338 87.8387 30.5978 86.6461 29.4427C85.4536 28.2877 85.4536 26.3747 86.6461 25.2558L92.46 19.6611C93.6151 18.5061 95.5904 18.5061 96.7829 19.6611ZM46.4726 19.6611L52.2116 25.2558C53.3668 26.3386 53.3668 28.3238 52.1742 29.4427C50.9817 30.5978 49.0069 30.5978 47.8143 29.4427L42.1123 23.8842C40.9197 22.7653 40.9571 20.8161 42.1497 19.6611C43.3422 18.5061 45.3174 18.5422 46.4726 19.6611ZM72.5222 11.6482V19.5168C72.5222 21.1049 71.1061 22.4765 69.4289 22.4765C67.7521 22.4765 66.3359 21.1049 66.3359 19.5168V11.6482C66.3359 10.06 67.7521 8.65234 69.4289 8.65234C71.1061 8.65234 72.5222 10.06 72.5222 11.6482Z" fill="#FAD631" fill-opacity="0.85"/>
<path d="M15.5403 81.3491H55.8629C66.484 81.3491 74.72 73.5529 74.72 63.5185C74.72 53.5565 66.3352 46.0128 55.1924 45.9407C50.9065 38.0359 43.1922 33.1992 33.9873 33.1992C21.8384 33.1992 11.5527 42.3311 10.3975 54.2062C4.21114 56.011 0 61.1364 0 67.6333C0 75.6464 6.22354 81.3491 15.5403 81.3491Z" fill="white" fill-opacity="0.85"/>
</svg>
