<svg width="108" height="90" viewBox="0 0 108 90" fill="none" xmlns="http://www.w3.org/2000/svg">
<path d="M67.8462 86.2088L78.5616 67.333C79.177 66.2272 78.8512 64.9735 77.8013 64.3468C76.7879 63.6831 75.4845 64.015 74.8328 65.1581L64.1897 83.9599C63.5743 85.066 63.9002 86.3564 64.95 87.02C65.9998 87.6467 67.2309 87.3149 67.8462 86.2088Z" fill="#36C8EB" fill-opacity="0.85"/>
<path d="M59.4481 75.7007L64.1542 67.3689C64.8058 66.2628 64.4437 64.9724 63.3575 64.3087C62.2717 63.6821 61.0407 64.0139 60.3893 65.157L55.647 73.5624C55.0313 74.5949 55.3212 75.8853 56.4433 76.5486C57.5294 77.1756 58.8324 76.7698 59.4481 75.7007Z" fill="#36C8EB" fill-opacity="0.85"/>
<path d="M39.0664 86.2478L49.7458 67.372C50.3611 66.2659 50.0716 65.0126 49.0218 64.3859C47.9716 63.7222 46.6324 64.0541 46.017 65.1968L35.4101 83.999C34.7946 85.1051 35.0843 86.3954 36.1703 87.0587C37.2201 87.6858 38.4509 87.317 39.0664 86.2478Z" fill="#36C8EB" fill-opacity="0.85"/>
<path d="M30.6316 75.7397L35.3377 67.408C36.0255 66.3018 35.6635 65.0115 34.5775 64.3478C33.4915 63.7211 32.2606 64.053 31.5728 65.1957L26.8305 73.6015C26.2151 74.6336 26.5409 75.924 27.6631 76.5876C28.713 77.2143 30.0162 76.8089 30.6316 75.7397Z" fill="#36C8EB" fill-opacity="0.85"/>
<path d="M29.6912 58.4861H74.6169C86.4907 58.4861 95.3237 49.306 95.3237 37.9512C95.3237 26.1907 85.9113 17.6007 73.6393 17.6007C69.1142 8.49463 60.7157 2.63281 50.2535 2.63281C36.6418 2.63281 25.4195 13.5085 24.2249 27.1861C17.6725 29.14 12.6768 34.9281 12.6768 42.7071C12.6768 51.4443 18.9033 58.4861 29.6912 58.4861Z" fill="white" fill-opacity="0.85"/>
</svg>
