<svg width="108" height="95" viewBox="0 0 108 95" fill="none" xmlns="http://www.w3.org/2000/svg">
<path d="M64.5105 79.6507C65.5828 80.2943 65.9404 81.5455 65.2968 82.6181L60.6495 90.6973C60.0415 91.7699 58.7547 92.1272 57.6821 91.5195C56.574 90.8764 56.2881 89.6251 56.8958 88.6239L61.579 80.4733C62.2226 79.4007 63.4379 79.043 64.5105 79.6507Z" fill="#36C8EB" fill-opacity="0.85"/>
<path d="M53.3569 69.6043C54.3936 70.212 54.7509 71.4632 54.1077 72.5717L49.4601 80.615C48.8524 81.6876 47.5653 82.0449 46.493 81.4731C45.3846 80.8296 45.0987 79.5783 45.7063 78.5416L50.3895 70.4265C51.0331 69.3184 52.2485 68.9607 53.3569 69.6043Z" fill="#36C8EB" fill-opacity="0.85"/>
<path d="M36.0893 79.6859C37.1618 80.3294 37.5193 81.5807 36.8401 82.6533L32.1927 90.7325C31.5849 91.8051 30.2979 92.1624 29.2612 91.5547C28.153 90.9112 27.8312 89.6599 28.439 88.6591L33.1221 80.5081C33.8014 79.4358 35.0168 79.0782 36.0893 79.6859Z" fill="#36C8EB" fill-opacity="0.85"/>
<path d="M24.8999 69.6434C25.9724 70.2511 26.3299 71.5023 25.6864 72.6104L21.0032 80.6542C20.3954 81.7268 19.1085 82.0841 18.0718 81.5123C16.9635 80.8687 16.6418 79.6175 17.2495 78.5808L21.9327 70.4656C22.6119 69.3572 23.8274 68.9999 24.8999 69.6434Z" fill="#36C8EB" fill-opacity="0.85"/>
<path d="M77.9878 4.93719C77.9878 6.83191 75.4495 10.2996 75.4495 15.0185C75.4495 23.2409 80.7403 28.2815 89.6063 28.2815C94.6471 28.2815 97.221 25.9936 98.9726 25.9936C100.117 25.9936 100.724 27.0303 100.724 28.4246C100.724 33.7767 95.0044 43.4489 83.1626 45.0666C82.7223 33.9458 74.1591 25.531 62.7229 24.3491C61.6573 22.6771 60.4573 21.1489 59.1328 19.7859C61.1272 10.0553 69.4074 3.39946 75.8071 3.14972C77.2015 3.11397 77.9878 3.82896 77.9878 4.93719Z" fill="white" fill-opacity="0.85"/>
<path d="M22.0757 63.5662H60.7921C70.9093 63.5662 78.7741 55.916 78.7741 46.0133C78.7741 36.1465 70.7662 28.7106 60.0772 28.6391C55.8944 20.667 48.4587 16.0195 39.8073 16.0195C28.1888 16.0195 18.322 25.0642 17.2495 36.7899C11.1721 38.6131 7.27539 43.7612 7.27539 50.0529C7.27539 58.0608 13.317 63.5662 22.0757 63.5662Z" fill="white" fill-opacity="0.85"/>
</svg>
