<svg width="108" height="90" viewBox="0 0 108 90" fill="none" xmlns="http://www.w3.org/2000/svg">
<g clip-path="url(#clip0_115_4232)">
<path d="M67.6982 86.3831L78.5397 67.5073C79.1623 66.4012 78.8326 65.0742 77.7341 64.5212C76.6719 63.9311 75.39 64.1893 74.7674 65.3321L63.999 84.1343C63.3397 85.2404 63.6694 86.5307 64.7315 87.194C65.7569 87.8211 67.112 87.4522 67.6982 86.3831Z" fill="#36C8EB" fill-opacity="0.85"/>
<path d="M53.2312 86.3461L63.9628 67.5809C64.6222 66.4011 64.2925 65.1478 63.1936 64.5211C62.0583 63.8574 60.8127 64.1893 60.1537 65.369L49.3854 84.2078C48.7992 85.2403 49.0557 86.5307 50.191 87.194C51.2899 87.821 52.6086 87.4522 53.2312 86.3461Z" fill="#36C8EB" fill-opacity="0.85"/>
<path d="M38.653 86.3461L49.3847 67.5809C50.0441 66.4011 49.7144 65.1478 48.6155 64.5211C47.48 63.8574 46.2347 64.1893 45.5755 65.369L34.8072 84.2078C34.2211 85.2403 34.4775 86.5307 35.6129 87.194C36.7117 87.821 38.0303 87.4522 38.653 86.3461Z" fill="#36C8EB" fill-opacity="0.85"/>
<path d="M24.0391 86.3461L34.8074 67.5809C35.4667 66.4011 35.1004 65.1478 34.0016 64.5211C32.9028 63.8574 31.6575 64.1893 30.9982 65.369L20.1932 84.2078C19.6072 85.2403 19.9002 86.5307 20.9991 87.194C22.0978 87.821 23.4164 87.4522 24.0391 86.3461Z" fill="#36C8EB" fill-opacity="0.85"/>
<path d="M30.5955 58.6228H76.0497C88.0632 58.6228 97.0001 49.4428 97.0001 38.0879C97.0001 26.3274 87.477 17.7374 75.0606 17.7374C70.4823 8.63135 61.9849 2.76953 51.3996 2.76953C37.6279 2.76953 26.2735 13.6453 25.0648 27.3228C18.4354 29.2768 13.3809 35.0648 13.3809 42.8438C13.3809 51.581 19.6807 58.6228 30.5955 58.6228Z" fill="white" fill-opacity="0.85"/>
</g>
<defs>
<clipPath id="clip0_115_4232">
<rect width="86" height="85" fill="white" transform="translate(11 2.5)"/>
</clipPath>
</defs>
</svg>
