<svg width="108" height="90" viewBox="0 0 108 90" fill="none" xmlns="http://www.w3.org/2000/svg">
<g clip-path="url(#clip0_115_4229)">
<path d="M79.9299 46.5931C80.6241 46.5931 81.0994 46.1172 81.1723 45.3848C82.3785 35.6061 82.8534 35.3498 92.7575 33.7383C93.5251 33.6284 94.0003 33.2256 94.0003 32.5297C94.0003 31.8339 93.5251 31.3944 92.9038 31.2845C82.9268 29.3801 82.3785 29.4167 81.1723 19.6382C81.0994 18.9058 80.6241 18.4297 79.9299 18.4297C79.272 18.4297 78.7971 18.9058 78.6874 19.6016C77.4446 29.5266 77.0794 29.8562 66.956 31.2845C66.3347 31.3578 65.8594 31.8339 65.8594 32.5297C65.8594 33.189 66.3347 33.6284 66.956 33.7383C77.0794 35.6794 77.4083 35.6794 78.6874 45.4579C78.7971 46.1172 79.272 46.5931 79.9299 46.5931ZM62.4607 21.799C62.8993 21.799 63.1186 21.5427 63.1915 21.1398C64.3247 15.0237 64.288 14.8772 70.647 13.6686C71.0489 13.5954 71.3416 13.339 71.3416 12.8995C71.3416 12.46 71.0489 12.2037 70.647 12.1304C64.288 10.8486 64.5073 10.7021 63.1915 4.65922C63.1186 4.25636 62.8993 4 62.4607 4C62.022 4 61.7664 4.25636 61.6931 4.65922C60.414 10.7021 60.6333 10.8486 54.2743 12.1304C53.8357 12.2037 53.5801 12.46 53.5801 12.8995C53.5801 13.339 53.8357 13.5954 54.2743 13.6686C60.6333 14.9504 60.5603 15.0237 61.6931 21.1398C61.7664 21.5427 62.022 21.799 62.4607 21.799Z" fill="white" fill-opacity="0.85"/>
<path d="M52.4469 80.0659C65.6402 80.0659 76.3848 73.4737 81.2457 62.0471C81.7936 60.7653 81.7206 59.6301 81.0627 58.9708C80.5512 58.4214 79.528 58.3482 78.4315 58.751C75.398 59.9597 71.9629 60.5455 67.9791 60.5455C51.4238 60.5455 40.7523 50.1446 40.7523 33.8836C40.7523 29.7452 41.5198 25.094 42.7623 22.567C43.3836 21.2852 43.3836 20.1498 42.7988 19.4906C42.1776 18.7581 41.0446 18.6483 39.6193 19.1976C28.3996 23.6657 20.8711 35.4585 20.8711 48.8627C20.8711 66.6618 33.9912 80.0659 52.4469 80.0659Z" fill="white" fill-opacity="0.85"/>
</g>
<defs>
<clipPath id="clip0_115_4229">
<rect width="80" height="82" fill="white" transform="translate(14 4)"/>
</clipPath>
</defs>
</svg>
