<svg width="108" height="90" viewBox="0 0 108 90" fill="none" xmlns="http://www.w3.org/2000/svg">
<path d="M54.0176 20.0112C55.7054 20.0112 57.1056 18.61 57.1056 16.8854V9.1609C57.1056 7.43635 55.7054 6.03516 54.0176 6.03516C52.2942 6.03516 50.8936 7.43635 50.8936 9.1609V16.8854C50.8936 18.61 52.2942 20.0112 54.0176 20.0112ZM71.6132 27.3764C72.834 28.5621 74.809 28.598 76.0298 27.3764L81.5241 21.8794C82.7088 20.6938 82.7088 18.6818 81.5241 17.4603C80.339 16.2747 78.364 16.2747 77.1432 17.4603L71.6132 22.9932C70.4281 24.2148 70.4281 26.1908 71.6132 27.3764ZM78.9027 45.0171C78.9027 46.7058 80.3389 48.1068 82.0267 48.1068H89.7471C91.4349 48.1068 92.8352 46.7058 92.8352 45.0171C92.8352 43.3285 91.4349 41.8914 89.7471 41.8914H82.0267C80.3389 41.8914 78.9027 43.3285 78.9027 45.0171ZM71.6132 62.6577C70.4281 63.8796 70.4281 65.8556 71.6132 67.041L77.1432 72.6099C78.364 73.7596 80.339 73.7235 81.5241 72.5739C82.7088 71.3524 82.7088 69.3764 81.5241 68.1907L75.9941 62.6577C74.809 61.508 72.834 61.508 71.6132 62.6577ZM54.0176 70.0232C52.2942 70.0232 50.8936 71.4242 50.8936 73.1128V80.8734C50.8936 82.5621 52.2942 83.9631 54.0176 83.9631C55.7054 83.9631 57.1056 82.5621 57.1056 80.8734V73.1128C57.1056 71.4242 55.7054 70.0232 54.0176 70.0232ZM36.3863 62.6577C35.1654 61.508 33.1545 61.508 31.9695 62.6577L26.4754 68.155C25.2904 69.3403 25.2904 71.3164 26.4395 72.5382C27.6245 73.6879 29.6354 73.7235 30.8563 72.5739L36.3504 67.041C37.5354 65.8556 37.5354 63.8796 36.3863 62.6577ZM29.0968 45.0171C29.0968 43.3285 27.6604 41.8914 25.9727 41.8914H18.2522C16.5645 41.8914 15.1641 43.3285 15.1641 45.0171C15.1641 46.7058 16.5645 48.1068 18.2522 48.1068H25.9727C27.6604 48.1068 29.0968 46.7058 29.0968 45.0171ZM36.3504 27.3764C37.5354 26.2267 37.5354 24.1788 36.3863 22.9932L30.8922 17.4603C29.7072 16.3106 27.6963 16.2747 26.5113 17.4603C25.3263 18.6818 25.3263 20.6938 26.4754 21.8435L31.9695 27.3764C33.1545 28.5621 35.1295 28.5621 36.3504 27.3764Z" fill="#FAD631"/>
<path d="M53.9816 63.3389C63.9646 63.3389 72.2593 55.0394 72.2593 45.0155C72.2593 34.9556 63.9646 26.6562 53.9816 26.6562C43.9991 26.6562 35.7041 34.9556 35.7041 45.0155C35.7041 55.0394 43.9991 63.3389 53.9816 63.3389Z" fill="#FAD631"/>
</svg>
