<svg width="108" height="90" viewBox="0 0 108 90" fill="none" xmlns="http://www.w3.org/2000/svg">
<path d="M77.6302 79.6328H31.0868C29.8347 79.6328 28.833 80.5875 28.833 81.8601C28.833 83.133 29.8347 84.1229 31.0868 84.1229H77.6302C78.8823 84.1229 79.8842 83.133 79.8842 81.8601C79.8842 80.5875 78.8823 79.6328 77.6302 79.6328Z" fill="white" fill-opacity="0.85"/>
<path d="M77.6302 67.6445H31.0868C29.8347 67.6445 28.833 68.5992 28.833 69.8722C28.833 71.1448 29.8347 72.0995 31.0868 72.0995H77.6302C78.8823 72.0995 79.8842 71.1448 79.8842 69.8722C79.8842 68.5992 78.8823 67.6445 77.6302 67.6445Z" fill="white" fill-opacity="0.85"/>
<path d="M29.9774 59.4429H74.3745C86.1086 59.4429 94.8377 50.6394 94.8377 39.7498C94.8377 28.4713 85.536 20.2334 73.4084 20.2334C68.9366 11.5005 60.6368 5.87891 50.2977 5.87891C36.8462 5.87891 25.7559 16.3089 24.5753 29.4259C18.1 31.2997 13.1631 36.8506 13.1631 44.3106C13.1631 52.6901 19.3164 59.4429 29.9774 59.4429Z" fill="white" fill-opacity="0.85"/>
</svg>
