<svg width="108" height="90" viewBox="0 0 108 90" fill="none" xmlns="http://www.w3.org/2000/svg">
<path d="M10.5431 82.9616H97.4574C99.1674 82.9616 100.623 81.6517 100.623 80.0509C100.623 78.4501 99.1674 77.1406 97.4574 77.1406H10.5431C8.83317 77.1406 7.37793 78.4501 7.37793 80.0509C7.37793 81.6517 8.83317 82.9616 10.5431 82.9616Z" fill="white" fill-opacity="0.85"/>
<path d="M73.7009 65.4266C73.7009 54.6944 64.7878 45.7084 54.0187 45.7084C43.2137 45.7084 34.3003 54.6944 34.3003 65.4266C34.3003 68.0825 34.8461 70.6292 35.8647 72.8849H72.1366C73.1551 70.6292 73.7009 68.0825 73.7009 65.4266ZM15.2731 67.5006H24.2228C26.1146 67.5006 27.5335 66.1907 27.4971 64.5538C27.4607 62.9164 26.0782 61.6066 24.2228 61.6066H15.2731C13.3813 61.6066 12.0352 62.9164 12.0352 64.5538C12.0352 66.1907 13.3813 67.5006 15.2731 67.5006ZM30.8442 46.5086C32.1539 47.8546 34.1184 47.8911 35.2463 46.7269C36.3741 45.5627 36.3741 43.6345 35.028 42.3248L28.6977 35.9945C27.3516 34.6484 25.4961 34.6848 24.3319 35.8126C23.1677 36.9404 23.1314 38.8322 24.5139 40.1783L30.8442 46.5086ZM72.755 46.7269C73.9192 47.8546 75.8475 47.8546 77.1573 46.5086L83.4875 40.1783C84.87 38.8322 84.797 36.9768 83.6693 35.8126C82.5417 34.6484 80.6499 34.6484 79.3035 35.9945L72.9733 42.3248C71.6273 43.6345 71.5908 45.5992 72.755 46.7269ZM83.7785 67.5006H92.7284C94.6202 67.5006 95.9662 66.1907 95.9662 64.5538C95.9662 62.9164 94.6202 61.6066 92.7284 61.6066H83.7785C81.9232 61.6066 80.4677 62.9164 80.5042 64.5538C80.5407 66.1907 81.9232 67.5006 83.7785 67.5006Z" fill="#FAD631" fill-opacity="0.85"/>
<path d="M54.0178 36.7221C55.6187 36.7221 56.9646 35.3032 56.9646 33.5206V19.8777L56.5284 14.3841L59.2204 17.4765L63.768 22.0969C64.3138 22.6062 65.0052 22.9337 65.6963 22.9337C67.1514 22.9337 68.2065 21.915 68.2065 20.4961C68.2065 19.7321 67.952 19.15 67.3336 18.5679L55.9826 7.98106C55.2185 7.28982 54.6728 7.03516 54.0178 7.03516C53.3268 7.03516 52.781 7.28982 52.0169 7.98106L40.6661 18.5679C40.0476 19.15 39.793 19.7321 39.793 20.4961C39.793 21.915 40.848 22.9337 42.3033 22.9337C42.9945 22.9337 43.6857 22.6062 44.2315 22.0969L49.1428 17.1127L51.4711 14.3841L51.0349 19.8777V33.5206C51.0349 35.3032 52.3809 36.7221 54.0178 36.7221Z" fill="white" fill-opacity="0.85"/>
</svg>
