<svg width="108" height="90" viewBox="0 0 108 90" fill="none" xmlns="http://www.w3.org/2000/svg">
<path d="M73.4153 43.8807C73.4153 33.218 64.6035 24.2903 54.0003 24.2903C43.3974 24.2903 34.5855 33.218 34.5855 43.8807C34.5855 46.483 35.1586 48.9772 36.0899 51.182H71.8751C72.842 48.9772 73.4153 46.483 73.4153 43.8807ZM15.8511 45.9408H24.6631C26.5258 45.9408 27.9228 44.6398 27.887 43.0131C27.8511 41.4227 26.5258 40.0855 24.6631 40.0855H15.8511C13.9885 40.0855 12.6631 41.3868 12.6631 43.0131C12.6631 44.6398 13.9885 45.9408 15.8511 45.9408ZM35.5168 25.3024C36.6272 24.1458 36.6272 22.2663 35.3019 20.9289L29.0691 14.6398C27.7437 13.3024 25.9168 13.3386 24.7705 14.459C23.6243 15.5795 23.6243 17.459 24.9496 18.7964L31.1825 25.0855C32.5079 26.4229 34.4063 26.459 35.5168 25.3024ZM54.0003 17.6036C55.6124 17.5674 56.9017 16.194 56.9017 14.3506V5.45905C56.9017 3.57953 55.6124 2.24219 54.0003 2.24219C52.3885 2.24219 51.0988 3.57953 51.0988 5.45905V14.3506C51.0988 16.194 52.3885 17.6398 54.0003 17.6036ZM72.484 25.3024C73.5943 26.4229 75.4929 26.4229 76.8182 25.0855L83.0513 18.7964C84.3766 17.459 84.3406 15.6157 83.1943 14.459C82.1196 13.3024 80.257 13.3024 78.8957 14.6398L72.663 20.9289C71.3737 22.2663 71.3377 24.1819 72.484 25.3024ZM83.3378 45.9408H92.1495C94.0122 45.977 95.3378 44.6398 95.3378 43.0131C95.3378 41.4227 94.0122 40.0855 92.1495 40.0855H83.3378C81.4751 40.0855 80.078 41.3868 80.1139 43.0131C80.1495 44.6398 81.4751 45.9408 83.3378 45.9408Z" fill="#FAD631" fill-opacity="0.85"/>
<path d="M20.3287 59.9645H93.0809C94.3346 59.9645 95.3378 58.9885 95.3378 57.6875C95.3378 56.3862 94.3346 55.4102 93.0809 55.4102H20.3287C19.0392 55.4102 18.072 56.3862 18.072 57.6875C18.072 58.9885 19.0392 59.9645 20.3287 59.9645ZM14.9198 73.8802H87.6719C88.9257 73.8802 89.9289 72.868 89.9289 71.567C89.9289 70.2657 88.9257 69.2897 87.6719 69.2897H14.9198C13.6661 69.2897 12.6631 70.2657 12.6631 71.567C12.6631 72.868 13.6661 73.8802 14.9198 73.8802ZM20.3287 87.7597H93.0809C94.3346 87.7597 95.3378 86.7837 95.3378 85.4824C95.3378 84.1452 94.3346 83.1691 93.0809 83.1691H20.3287C19.0392 83.1691 18.072 84.1452 18.072 85.4824C18.072 86.7837 19.0392 87.7597 20.3287 87.7597Z" fill="white" fill-opacity="0.85"/>
</svg>
