<svg width="108" height="90" viewBox="0 0 108 90" fill="none" xmlns="http://www.w3.org/2000/svg">
<path d="M65.7332 84.5433C66.3923 84.5433 66.868 83.9203 66.8317 83.2245L66.5752 79.7447L69.5044 81.7226C70.017 82.0891 70.8223 81.9424 71.1886 81.3929C71.5545 80.8434 71.3348 80.0009 70.6393 79.6712L67.4908 78.133L70.6761 76.5576C71.3348 76.2283 71.5181 75.4222 71.2253 74.8727C70.8958 74.2868 70.017 74.1769 69.5044 74.543L66.5752 76.5576L66.868 73.0415C66.9415 72.3085 66.3923 71.7227 65.7332 71.7227C64.9642 71.7227 64.4885 72.3085 64.5248 73.0415L64.7813 76.5576L61.8157 74.543C61.3032 74.1769 60.5342 74.25 60.1679 74.8727C59.8384 75.4222 59.985 76.2283 60.6808 76.5576L63.8294 78.133L60.6808 79.6712C59.985 80.0009 59.802 80.807 60.1316 81.3929C60.4611 81.9792 61.3032 82.0891 61.8157 81.7226L64.7813 79.7811L64.5616 83.2245C64.5248 83.9203 64.9642 84.5433 65.7332 84.5433Z" fill="white" fill-opacity="0.85"/>
<path d="M44.827 89.9987C45.5227 89.9987 45.962 89.3761 45.9254 88.7167L45.7057 85.2369L48.5982 87.1784C49.1474 87.5445 49.9527 87.3982 50.319 86.8487C50.6849 86.2992 50.4652 85.4567 49.7698 85.127L46.621 83.6252L49.8065 82.0502C50.4652 81.7204 50.6486 80.9148 50.3554 80.3285C50.0262 79.7426 49.1474 79.6327 48.5982 79.9988L45.7057 82.0502L45.962 78.4969C46.0352 77.8011 45.5227 77.2148 44.827 77.2148C44.0582 77.2148 43.6188 77.8011 43.6554 78.4969L43.8751 82.0502L40.9461 79.9988C40.3969 79.6327 39.628 79.7058 39.2619 80.3285C38.9324 80.9148 39.0788 81.6837 39.7745 82.0502L42.9598 83.6252L39.7745 85.1638C39.0788 85.4935 38.8958 86.2624 39.2253 86.8487C39.5548 87.4714 40.3969 87.5813 40.9461 87.2148L43.8751 85.2369L43.692 88.7167C43.6554 89.3761 44.0582 89.9987 44.827 89.9987Z" fill="white" fill-opacity="0.85"/>
<path d="M27.3632 84.3972C28.0222 84.3972 28.4982 83.7745 28.4616 83.1151L28.2053 79.5986L31.1343 81.5765C31.6469 81.9429 32.489 81.7963 32.8185 81.2468C33.1846 80.6976 32.965 79.8552 32.2693 79.5255L29.1206 77.9868L32.3059 76.4118C32.965 76.0821 33.148 75.3128 32.8551 74.7269C32.5622 74.1406 31.6469 74.0307 31.1343 74.3972L28.2053 76.4118L28.4982 72.8953C28.5714 72.1992 28.0222 71.6133 27.3632 71.6133C26.5943 71.6133 26.1183 72.1992 26.155 72.8953L26.4113 76.4118L23.4456 74.3972C22.933 74.0307 22.1642 74.1043 21.798 74.7269C21.4685 75.3128 21.615 76.0821 22.3106 76.4118L25.4593 77.9868L22.3106 79.5255C21.615 79.8552 21.4319 80.6609 21.7614 81.2468C22.0909 81.8698 22.933 81.9797 23.4456 81.6132L26.4113 79.6354L26.1916 83.1151C26.155 83.7745 26.5943 84.3972 27.3632 84.3972Z" fill="white" fill-opacity="0.85"/>
<path d="M72.507 68.8269L74.9597 64.5047C75.6188 63.4057 75.2892 62.0869 74.1911 61.4274C73.0926 60.8048 71.8111 61.208 71.152 62.2703L68.6626 66.7024C68.0766 67.7279 68.3331 69.0099 69.4679 69.6693C70.5664 70.292 71.8843 69.8891 72.507 68.8269Z" fill="#36C8EB" fill-opacity="0.85"/>
<path d="M50.1002 74.2888L55.8117 64.3987C56.4341 63.263 56.1049 61.9809 55.0428 61.3582C53.9079 60.6988 52.6264 61.0653 52.0041 62.2007L46.2559 72.1643C45.6334 73.2265 45.9629 74.5086 47.098 75.1312C48.1597 75.7539 49.5143 75.3878 50.1002 74.2888Z" fill="#36C8EB" fill-opacity="0.85"/>
<path d="M34.1368 68.6821L36.5898 64.3599C37.2488 63.2609 36.9193 61.9424 35.8209 61.283C34.7225 60.6603 33.4411 61.0632 32.7821 62.1255L30.2924 66.5576C29.7066 67.5834 29.9629 68.8655 31.0979 69.5245C32.1963 70.1476 33.5143 69.7811 34.1368 68.6821Z" fill="#36C8EB" fill-opacity="0.85"/>
<path d="M29.4141 55.4946H74.8507C86.8596 55.4946 95.7931 46.3738 95.7931 35.0918C95.7931 23.4067 86.2736 14.8718 73.8621 14.8718C69.2855 5.82421 60.7914 0 50.2102 0C36.4437 0 25.0938 10.8059 23.8855 24.3957C17.2586 26.3371 12.2061 32.0881 12.2061 39.8168C12.2061 48.4983 18.5034 55.4946 29.4141 55.4946Z" fill="white" fill-opacity="0.85"/>
</svg>
