<svg width="108" height="90" viewBox="0 0 108 90" fill="none" xmlns="http://www.w3.org/2000/svg">
<path d="M78.0751 16.2493C78.0751 18.1673 75.562 21.6415 75.562 26.4547C75.562 34.7421 80.8401 39.881 89.745 39.881C94.8076 39.881 97.4288 37.5649 99.1882 37.5649C100.337 37.5649 100.948 38.5782 100.948 39.9896C100.948 45.4405 95.2029 55.2341 83.3102 56.8725C82.8814 45.6317 74.242 37.0977 62.7791 35.9001C61.7095 34.201 60.505 32.6505 59.1758 31.2692C61.1815 21.4171 69.4908 14.6563 75.8848 14.4036C77.3213 14.3674 78.0751 15.1274 78.0751 16.2493Z" fill="white" fill-opacity="0.85"/>
<path d="M21.953 75.598H60.804C71.0013 75.598 78.901 67.8173 78.901 57.7927C78.901 47.8406 70.8579 40.3132 60.1216 40.2408C55.9208 32.1344 48.416 27.4297 39.7626 27.4297C28.0571 27.4297 18.1828 36.5857 17.0697 48.492C10.9656 50.3378 7.05176 55.5489 7.05176 61.9184C7.05176 70.0249 13.12 75.598 21.953 75.598Z" fill="white" fill-opacity="0.85"/>
</svg>
